<?xml version="1.0"?>
<svg version="1.1" xmlns="http://www.w3.org/2000/svg" width="400" height="50" style=""><path fill="#2a9aeb" d="M16.01513671875,33.2177734375l0-2.5458984375q0-2.642578125,0.088623046875-5.244873046875t0.153076171875-5.244873046875q0-0.49951171875-0.0322265625-1.11181640625q-0.01611328125-0.17724609375-0.01611328125-0.33837890625q0-0.40283203125,0.064453125-0.78955078125q0.08056640625-0.515625,0.394775390625-0.88623046875t1.039306640625-0.37060546875q0.59619140625,0,0.910400390625,0.12890625t0.443115234375,0.378662109375t0.14501953125,0.62841796875t0.01611328125,0.878173828125q0,2.6748046875-0.064453125,5.36572265625q-0.04833984375,1.78857421875-0.04833984375,3.5771484375q0,0.90234375,0.01611328125,1.8046875q0.0322265625,2.6748046875,0.249755859375,5.349609375t0.733154296875,5.28515625q1.611328125-0.064453125,3.22265625-0.1611328125t3.22265625-0.0966796875q0.1611328125,0,0.459228515625,0.0322265625t0.59619140625,0.11279296875t0.507568359375,0.20947265625t0.20947265625,0.37060546875q0,0.1611328125-0.14501953125,0.27392578125t-0.27392578125,0.17724609375l-0.0322265625,0q-0.2578125,0.12890625-1.023193359375,0.249755859375t-1.740234375,0.185302734375t-2.04638671875,0.11279296875t-2.01416015625,0.08056640625t-1.635498046875,0.04833984375t-0.85400390625,0.01611328125l-0.14501953125,0q-0.38671875,0-0.8701171875-0.12890625q-0.580078125-0.1611328125-0.72509765625-0.62841796875q-0.2900390625-1.1923828125-0.459228515625-2.473388671875t-0.2578125-2.602294921875t-0.088623046875-2.642578125z M30.640678710938,36.150390625q0-1.1279296875,0.249755859375-2.65869140625t0.845947265625-2.900390625t1.571044921875-2.328369140625t2.457275390625-0.958740234375q1.3857421875,0,2.07861328125,0.797607421875t0.69287109375,2.151123046875q0,0.88623046875-0.330322265625,1.941650390625t-0.942626953125,1.998046875t-1.4501953125,1.571044921875t-1.869140625,0.62841796875l-0.4189453125-0.0322265625q0,0.43505859375,0.12890625,1.168212890625t0.378662109375,1.458251953125t0.64453125,1.27294921875t0.958740234375,0.5478515625q0.82177734375,0,1.5791015625-0.66064453125t1.43408203125-1.46630859375t1.2568359375-1.46630859375t1.0634765625-0.66064453125q0.2578125,0,0.53173828125,0.08056640625t0.30615234375,0.451171875q0,0.2255859375-0.120849609375,0.37060546875t-0.217529296875,0.322265625q-0.49951171875,0.85400390625-1.087646484375,1.62744140625t-1.329345703125,1.40185546875t-1.619384765625,0.990966796875t-1.941650390625,0.362548828125q-1.3857421875,0-2.30419921875-0.491455078125t-1.482421875-1.3212890625t-0.813720703125-1.91748046875t-0.249755859375-2.280029296875z M33.524956054688,34.92578125l0.451171875,0.40283203125q0.322265625,0.2900390625,0.64453125,0.12890625t0.580078125-0.588134765625t0.475341796875-1.055419921875t0.38671875-1.2890625t0.249755859375-1.2890625t0.08056640625-1.04736328125l0-0.5478515625t-0.04833984375-0.580078125t-0.169189453125-0.459228515625t-0.378662109375-0.233642578125q-0.08056640625-0.01611328125-0.14501953125-0.01611328125q-0.5478515625,0-0.9345703125,0.69287109375q-0.4189453125,0.7734375-0.6767578125,1.877197265625t-0.37060546875,2.263916015625t-0.14501953125,1.740234375z M44.106064453125,34.92578125q0-0.88623046875,0.169189453125-1.893310546875t0.580078125-1.844970703125t1.135986328125-1.3857421875t1.85302734375-0.5478515625q0.75732421875,0,1.46630859375,0.249755859375t1.33740234375,0.684814453125q0.193359375-0.322265625,0.6123046875-0.394775390625t0.7412109375-0.072509765625q0.12890625,0,0.362548828125,0.01611328125t0.459228515625,0.0966796875t0.394775390625,0.193359375t0.201416015625,0.322265625q0.12890625,1.1279296875,0.17724609375,2.247802734375t0.14501953125,2.231689453125q0.1611328125,2.07861328125,0.49951171875,4.10888671875t0.33837890625,4.10888671875q0,0.98291015625-0.088623046875,2.126953125t-0.46728515625,2.118896484375t-1.103759765625,1.619384765625t-2.01416015625,0.64453125q-1.16015625,0-1.780517578125-0.410888671875t-1.119873046875-1.377685546875q0.0322265625-0.322265625,0.410888671875-0.427001953125t0.652587890625-0.104736328125q0.2578125,0,0.523681640625,0.04833984375t0.427001953125,0.1611328125l0.40283203125,0.2578125q0.59619140625-1.224609375,0.72509765625-2.6748046875t0.12890625-2.8037109375q0-1.1279296875-0.11279296875-2.231689453125t-0.2255859375-2.215576171875q-1.1279296875,2.04638671875-3.43212890625,2.04638671875q-1.0634765625,0-1.732177734375-0.451171875t-1.03125-1.14404296875t-0.49951171875-1.56298828125t-0.136962890625-1.740234375z M46.087998046875,35.07080078125q0,0.40283203125,0.0322265625,1.039306640625t0.169189453125,1.248779296875t0.394775390625,1.055419921875t0.72509765625,0.443115234375q0.88623046875,0,1.40185546875-0.69287109375t0.813720703125-1.651611328125t0.475341796875-1.98193359375t0.451171875-1.683837890625q-0.0322265625-0.2255859375-0.0322265625-0.443115234375l0-0.443115234375q-0.37060546875-0.69287109375-1.07958984375-1.200439453125t-1.46630859375-0.684814453125q-0.0966796875-0.01611328125-0.17724609375-0.01611328125q-0.451171875,0-0.7412109375,0.53173828125q-0.37060546875,0.64453125-0.580078125,1.538818359375t-0.298095703125,1.764404296875t-0.088623046875,1.17626953125z M57.877602539063,35.10302734375q0-1.482421875,0.346435546875-2.908447265625t0.588134765625-2.843994140625q0.064453125-0.37060546875,0.507568359375-0.459228515625t0.749267578125-0.088623046875q0.53173828125,0,0.85400390625,0.1611328125q0.12890625,0.064453125,0.24169921875,0.14501953125t0.11279296875,0.20947265625q0,1.3857421875-0.330322265625,2.70703125t-0.330322265625,2.8037109375q0,0.49951171875,0.072509765625,0.942626953125t0.136962890625,0.878173828125l0.0966796875,0.46728515625q0,0.12890625,0.01611328125,0.2255859375t0.04833984375,0.2255859375q0,0.2900390625-0.410888671875,0.394775390625t-0.717041015625,0.104736328125q-0.46728515625,0-0.862060546875-0.185302734375t-0.620361328125-0.636474609375l-0.2255859375-0.46728515625q-0.193359375-0.37060546875-0.193359375-0.829833984375t-0.08056640625-0.845947265625z M58.908852539063,25.40283203125l0-0.30615234375q0-0.75732421875,0.378662109375-1.353515625t1.135986328125-0.59619140625q0.0966796875,0,0.185302734375,0.01611328125t0.185302734375,0.01611328125q0.193359375,0.0322265625,0.507568359375,0.153076171875t0.314208984375,0.378662109375l0,0.0322265625q-0.064453125,0.12890625-0.08056640625,0.265869140625t-0.08056640625,0.233642578125l0.0322265625-0.0322265625q-0.193359375,0.49951171875-0.314208984375,0.8056640625t-0.265869140625,0.491455078125t-0.362548828125,0.265869140625t-0.620361328125,0.08056640625q-0.064453125,0-0.2255859375-0.01611328125t-0.346435546875-0.064453125t-0.314208984375-0.12890625t-0.12890625-0.24169921875z M64.25314453125,25.2578125q0-0.2255859375,0.4833984375-0.38671875t1.095703125-0.265869140625t1.184326171875-0.153076171875t0.781494140625-0.08056640625q0-0.43505859375,0.0322265625-0.878173828125t0.17724609375-0.78955078125t0.459228515625-0.555908203125t0.878173828125-0.20947265625q0.46728515625,0,0.708984375,0.11279296875t0.515625,0.46728515625q0.064453125,0.193359375,0.064453125,0.37060546875l0,0.539794921875t-0.0322265625,0.555908203125q0.59619140625-0.064453125,1.184326171875-0.153076171875t1.184326171875-0.088623046875q0.43505859375,0,0.59619140625,0.01611328125t0.322265625,0.38671875q0.12890625,0.37060546875-0.314208984375,0.56396484375t-1.0634765625,0.2900390625t-1.232666015625,0.14501953125t-0.7412109375,0.04833984375q-0.193359375,2.771484375-0.394775390625,5.49462890625t-0.201416015625,5.52685546875q0,1.2568359375,0.08056640625,2.59423828125t0.451171875,2.52978515625q0.0966796875,0.37060546875,0.322265625,0.69287109375t0.2255859375,0.69287109375q0,0.2255859375-0.17724609375,0.3544921875t-0.427001953125,0.217529296875t-0.49951171875,0.104736328125t-0.410888671875,0.01611328125q-1.01513671875,0-1.546875-0.75732421875t-0.765380859375-1.812744140625t-0.249755859375-2.167236328125t-0.01611328125-1.8046875q0-1.41796875,0.056396484375-2.900390625t0.136962890625-2.9326171875t0.2255859375-2.8359375t0.33837890625-2.578125q-0.56396484375,0.064453125-1.103759765625,0.14501953125t-1.103759765625,0.08056640625q-0.12890625,0-0.346435546875-0.01611328125t-0.410888671875-0.08056640625t-0.330322265625-0.17724609375t-0.136962890625-0.322265625z M82.853349609375,19.08642578125q0-1.1279296875,0.38671875-1.5146484375t1.07958984375-0.38671875q0.193359375,0,0.410888671875,0.0322265625t0.410888671875,0.0966796875q1.07958984375-0.20947265625,2.04638671875-0.20947265625q1.56298828125,0,2.8359375,0.5478515625q2.04638671875,0.8701171875,3.3837890625,2.578125t1.9658203125,4.01220703125t0.62841796875,4.72119140625q0,1.353515625-0.185302734375,2.81982421875t-0.717041015625,2.72314453125q-0.46728515625,1.1279296875-1.2890625,2.360595703125t-1.861083984375,2.33642578125t-2.23974609375,1.93359375t-2.425048828125,1.119873046875l0,0.12890625q0,0.322265625-0.169189453125,0.523681640625t-0.410888671875,0.30615234375t-0.555908203125,0.136962890625t-0.588134765625,0.0322265625q-0.1611328125,0-0.459228515625-0.0322265625t-0.580078125-0.120849609375t-0.475341796875-0.233642578125t-0.193359375-0.40283203125q0-2.9326171875-0.153076171875-5.873291015625t-0.346435546875-5.88134765625t-0.346435546875-5.873291015625t-0.153076171875-5.88134765625z M85.898759765625,18.2646484375q0.1611328125,1.546875,0.20947265625,3.085693359375t0.14501953125,3.085693359375q0.2578125,3.99609375,0.59619140625,7.951904296875t0.40283203125,7.951904296875q1.546875-1.01513671875,2.650634765625-2.3203125t1.812744140625-2.8359375t1.039306640625-3.214599609375t0.330322265625-3.472412109375q0-1.2890625-0.2255859375-2.8359375t-0.7734375-2.98095703125t-1.474365234375-2.59423828125t-2.312255859375-1.65966796875q-0.2900390625-0.0966796875-0.700927734375-0.1611328125t-1.313232421875-0.064453125q-0.0966796875,0-0.193359375,0.0322265625t-0.193359375,0.0322265625z M99.283579101563,36.150390625q0-1.1279296875,0.249755859375-2.65869140625t0.845947265625-2.900390625t1.571044921875-2.328369140625t2.457275390625-0.958740234375q1.3857421875,0,2.07861328125,0.797607421875t0.69287109375,2.151123046875q0,0.88623046875-0.330322265625,1.941650390625t-0.942626953125,1.998046875t-1.4501953125,1.571044921875t-1.869140625,0.62841796875l-0.4189453125-0.0322265625q0,0.43505859375,0.12890625,1.168212890625t0.378662109375,1.458251953125t0.64453125,1.27294921875t0.958740234375,0.5478515625q0.82177734375,0,1.5791015625-0.66064453125t1.43408203125-1.46630859375t1.2568359375-1.46630859375t1.0634765625-0.66064453125q0.2578125,0,0.53173828125,0.08056640625t0.30615234375,0.451171875q0,0.2255859375-0.120849609375,0.37060546875t-0.217529296875,0.322265625q-0.49951171875,0.85400390625-1.087646484375,1.62744140625t-1.329345703125,1.40185546875t-1.619384765625,0.990966796875t-1.941650390625,0.362548828125q-1.3857421875,0-2.30419921875-0.491455078125t-1.482421875-1.3212890625t-0.813720703125-1.91748046875t-0.249755859375-2.280029296875z M102.16785644531,34.92578125l0.451171875,0.40283203125q0.322265625,0.2900390625,0.64453125,0.12890625t0.580078125-0.588134765625t0.475341796875-1.055419921875t0.38671875-1.2890625t0.249755859375-1.2890625t0.08056640625-1.04736328125l0-0.5478515625t-0.04833984375-0.580078125t-0.169189453125-0.459228515625t-0.378662109375-0.233642578125q-0.08056640625-0.01611328125-0.14501953125-0.01611328125q-0.5478515625,0-0.9345703125,0.69287109375q-0.4189453125,0.7734375-0.6767578125,1.877197265625t-0.37060546875,2.263916015625t-0.14501953125,1.740234375z M112.0883203125,29.49560546875q0-0.12890625,0.153076171875-0.233642578125t0.346435546875-0.153076171875t0.394775390625-0.064453125t0.298095703125-0.01611328125q0.72509765625,0,1.24072265625,0.64453125t0.894287109375,1.651611328125t0.64453125,2.2236328125t0.507568359375,2.425048828125t0.475341796875,2.215576171875t0.523681640625,1.554931640625q0.49951171875-0.98291015625,0.910400390625-2.36865234375t0.75732421875-2.8681640625t0.6123046875-2.924560546875t0.427001953125-2.521728515625q0.064453125-0.2900390625,0.40283203125-0.362548828125t0.56396484375-0.072509765625q0.37060546875,0,0.64453125,0.104736328125t0.27392578125,0.459228515625q0,0.59619140625-0.14501953125,1.619384765625t-0.394775390625,2.296142578125t-0.580078125,2.6103515625t-0.708984375,2.537841796875t-0.78955078125,2.126953125t-0.813720703125,1.313232421875q-0.193359375,0.2255859375-0.604248046875,0.314208984375t-0.684814453125,0.088623046875q-0.95068359375,0-1.5791015625-0.49951171875l0,0.0322265625q-0.98291015625-0.91845703125-1.4501953125-2.23974609375t-0.6767578125-2.75537109375t-0.378662109375-2.85205078125t-0.572021484375-2.578125q-0.064453125-0.12890625-0.1611328125-0.378662109375t-0.2255859375-0.49951171875t-0.217529296875-0.475341796875t-0.088623046875-0.3544921875z M124.79638183594,36.150390625q0-1.1279296875,0.249755859375-2.65869140625t0.845947265625-2.900390625t1.571044921875-2.328369140625t2.457275390625-0.958740234375q1.3857421875,0,2.07861328125,0.797607421875t0.69287109375,2.151123046875q0,0.88623046875-0.330322265625,1.941650390625t-0.942626953125,1.998046875t-1.4501953125,1.571044921875t-1.869140625,0.62841796875l-0.4189453125-0.0322265625q0,0.43505859375,0.12890625,1.168212890625t0.378662109375,1.458251953125t0.64453125,1.27294921875t0.958740234375,0.5478515625q0.82177734375,0,1.5791015625-0.66064453125t1.43408203125-1.46630859375t1.2568359375-1.46630859375t1.0634765625-0.66064453125q0.2578125,0,0.53173828125,0.08056640625t0.30615234375,0.451171875q0,0.2255859375-0.120849609375,0.37060546875t-0.217529296875,0.322265625q-0.49951171875,0.85400390625-1.087646484375,1.62744140625t-1.329345703125,1.40185546875t-1.619384765625,0.990966796875t-1.941650390625,0.362548828125q-1.3857421875,0-2.30419921875-0.491455078125t-1.482421875-1.3212890625t-0.813720703125-1.91748046875t-0.249755859375-2.280029296875z M127.68065917969,34.92578125l0.451171875,0.40283203125q0.322265625,0.2900390625,0.64453125,0.12890625t0.580078125-0.588134765625t0.475341796875-1.055419921875t0.38671875-1.2890625t0.249755859375-1.2890625t0.08056640625-1.04736328125l0-0.5478515625t-0.04833984375-0.580078125t-0.169189453125-0.459228515625t-0.378662109375-0.233642578125q-0.08056640625-0.01611328125-0.14501953125-0.01611328125q-0.5478515625,0-0.9345703125,0.69287109375q-0.4189453125,0.7734375-0.6767578125,1.877197265625t-0.37060546875,2.263916015625t-0.14501953125,1.740234375z M138.26176757812,41.2099609375q0-0.46728515625,0.040283203125-0.98291015625t0.072509765625-0.966796875l0.0966796875-2.4169921875q0.1611328125-2.900390625,0.394775390625-5.7041015625t0.394775390625-5.671875q0.0966796875-1.5791015625,0.14501953125-3.101806640625t0.14501953125-3.101806640625q-0.064453125-0.12890625-0.064453125-0.17724609375q0-0.2255859375,0.169189453125-0.3544921875t0.394775390625-0.217529296875t0.475341796875-0.120849609375t0.378662109375-0.0322265625l0.37060546875,0q0.49951171875,0.064453125,0.72509765625,0.314208984375t0.2900390625,0.59619140625t0.0322265625,0.7412109375t-0.0322265625,0.733154296875q0,2.33642578125-0.11279296875,4.761474609375t-0.2578125,4.8662109375t-0.265869140625,4.88232421875t-0.120849609375,4.825927734375l0,1.1279296875q0,0.75732421875-0.427001953125,0.9990234375t-1.184326171875,0.24169921875q-0.66064453125,0-1.16015625-0.2900390625t-0.49951171875-0.95068359375z M145.33018066406,35.7958984375q0-0.91845703125,0.233642578125-1.893310546875t0.7412109375-1.75634765625t1.281005859375-1.27294921875t1.869140625-0.491455078125q0.82177734375,0,1.732177734375,0.281982421875t1.667724609375,0.8056640625t1.232666015625,1.281005859375t0.475341796875,1.69189453125q0,1.1279296875-0.410888671875,2.14306640625t-1.152099609375,1.812744140625t-1.732177734375,1.2568359375t-2.151123046875,0.459228515625q-0.95068359375,0-1.65966796875-0.346435546875t-1.184326171875-0.926513671875t-0.708984375-1.36962890625t-0.233642578125-1.67578125z M147.69883300781,35.763671875q0,0.2900390625,0.088623046875,0.85400390625t0.265869140625,1.103759765625t0.459228515625,0.9345703125t0.684814453125,0.362548828125q0.85400390625-0.0966796875,1.409912109375-0.555908203125t0.90234375-1.119873046875t0.4833984375-1.43408203125t0.136962890625-1.46630859375q0-0.88623046875-0.346435546875-1.482421875t-1.135986328125-0.966796875q0,0.0322265625,0.0322265625,0.0322265625t0.0322265625-0.0322265625l-0.40283203125-0.0966796875q-0.1611328125-0.064453125-0.394775390625-0.14501953125t-0.459228515625-0.3544921875q-0.62841796875,0.2255859375-0.974853515625,0.580078125t-0.523681640625,0.862060546875t-0.217529296875,1.216552734375t-0.040283203125,1.7080078125z M157.53873046875,29.65673828125q0-0.75732421875,0.298095703125-1.119873046875t1.087646484375-0.362548828125q0.46728515625,0,0.878173828125,0.193359375t0.410888671875,0.82177734375q0.064453125,0.91845703125,0.064453125,1.925537109375t0.17724609375,1.909423828125q0.40283203125-0.66064453125,0.910400390625-1.3212890625t1.119873046875-1.17626953125t1.33740234375-0.829833984375t1.5791015625-0.314208984375q1.16015625,0,1.9658203125,0.4833984375t1.329345703125,1.2568359375t0.75732421875,1.748291015625t0.233642578125,1.957763671875q0,1.5146484375-0.459228515625,2.473388671875t-1.216552734375,1.506591796875t-1.716064453125,0.7412109375t-1.925537109375,0.193359375q-0.85400390625,0-1.59521484375-0.330322265625t-1.03125-1.248779296875q0-0.2578125,0.378662109375-0.322265625t0.539794921875-0.064453125q0.53173828125,0,0.78955078125,0.2900390625q0.193359375,0.2255859375,0.427001953125,0.459228515625t0.491455078125,0.233642578125q0.49951171875,0,1.04736328125-0.281982421875t1.007080078125-0.7412109375t0.7734375-1.087646484375t0.314208984375-1.2890625q0-0.56396484375-0.0966796875-1.40185546875t-0.330322265625-1.611328125t-0.64453125-1.33740234375t-1.039306640625-0.56396484375q-0.95068359375,0-1.716064453125,0.8701171875t-1.27294921875,2.0947265625t-0.78955078125,2.5458984375t-0.281982421875,2.20751953125t0.11279296875,2.23974609375t0.233642578125,2.811767578125t0.233642578125,2.811767578125t0.11279296875,2.23974609375q0,0.2255859375-0.185302734375,0.362548828125t-0.443115234375,0.217529296875t-0.523681640625,0.0966796875t-0.394775390625,0.01611328125q-0.43505859375,0-0.910400390625-0.0966796875t-0.652587890625-0.59619140625q-0.2255859375-0.78955078125-0.4189453125-2.247802734375t-0.346435546875-3.22265625t-0.265869140625-3.7060546875t-0.193359375-3.746337890625t-0.120849609375-3.30322265625t-0.040283203125-2.384765625z M172.98604980469,36.150390625q0-1.1279296875,0.249755859375-2.65869140625t0.845947265625-2.900390625t1.571044921875-2.328369140625t2.457275390625-0.958740234375q1.3857421875,0,2.07861328125,0.797607421875t0.69287109375,2.151123046875q0,0.88623046875-0.330322265625,1.941650390625t-0.942626953125,1.998046875t-1.4501953125,1.571044921875t-1.869140625,0.62841796875l-0.4189453125-0.0322265625q0,0.43505859375,0.12890625,1.168212890625t0.378662109375,1.458251953125t0.64453125,1.27294921875t0.958740234375,0.5478515625q0.82177734375,0,1.5791015625-0.66064453125t1.43408203125-1.46630859375t1.2568359375-1.46630859375t1.0634765625-0.66064453125q0.2578125,0,0.53173828125,0.08056640625t0.30615234375,0.451171875q0,0.2255859375-0.120849609375,0.37060546875t-0.217529296875,0.322265625q-0.49951171875,0.85400390625-1.087646484375,1.62744140625t-1.329345703125,1.40185546875t-1.619384765625,0.990966796875t-1.941650390625,0.362548828125q-1.3857421875,0-2.30419921875-0.491455078125t-1.482421875-1.3212890625t-0.813720703125-1.91748046875t-0.249755859375-2.280029296875z M175.87032714844,34.92578125l0.451171875,0.40283203125q0.322265625,0.2900390625,0.64453125,0.12890625t0.580078125-0.588134765625t0.475341796875-1.055419921875t0.38671875-1.2890625t0.249755859375-1.2890625t0.08056640625-1.04736328125l0-0.5478515625t-0.04833984375-0.580078125t-0.169189453125-0.459228515625t-0.378662109375-0.233642578125q-0.08056640625-0.01611328125-0.14501953125-0.01611328125q-0.5478515625,0-0.9345703125,0.69287109375q-0.4189453125,0.7734375-0.6767578125,1.877197265625t-0.37060546875,2.263916015625t-0.14501953125,1.740234375z M186.45143554687,30.97802734375q0-0.66064453125,0.233642578125-1.11181640625t0.990966796875-0.451171875q0.2900390625,0,0.72509765625,0.088623046875t0.49951171875,0.443115234375q0.1611328125,0.95068359375,0.17724609375,2.0625t0.11279296875,2.0947265625q0.37060546875-0.72509765625,0.95068359375-1.56298828125t1.3212890625-1.546875t1.611328125-1.17626953125t1.7724609375-0.46728515625q0.064453125,0,0.24169921875,0.04833984375t0.330322265625,0.136962890625t0.185302734375,0.201416015625t-0.17724609375,0.20947265625q-0.064453125,0.193359375-0.27392578125,0.233642578125t-0.37060546875,0.040283203125q-0.0966796875,0-0.30615234375-0.08056640625q-1.1923828125,0.62841796875-2.0302734375,1.7080078125t-1.36962890625,2.392822265625t-0.7734375,2.771484375t-0.24169921875,2.843994140625q0,0.69287109375-0.314208984375,0.837890625t-1.007080078125,0.14501953125q-0.37060546875,0-0.781494140625-0.08056640625t-0.572021484375-0.515625q-0.2900390625-0.91845703125-0.475341796875-2.11083984375t-0.281982421875-2.457275390625t-0.136962890625-2.489501953125t-0.040283203125-2.20751953125z"/><path fill="#" d=""/></svg>
